# xmcd
#
# Track frame offsets: 
#        150
#        15020
#        23922
#        37800
#        52832
#        62317
#        77115
#        92047
#        102792
#        112070
#        124480
#        137160
#
# Disc length: 2101 seconds
#
# Revision: 3
# Processed by: cddbd v1.5.2PL0 Copyright (c) Steve Scherf et al.
# Submitted via: ExactAudioCopy v0.90b4
#
DISCID=8b08330c
DTITLE=The Delfonics - Platinum and Gold Collection
DYEAR=2003
DGENRE=R&B/Soul
TTITLE0=La-La (Means I Love You)
TTITLE1=Ready Or Not Here I Come (Can't Hide From Love)
TTITLE2=Trying To Make A Fool Of Me
TTITLE3=Didn't I (Blow Your MInd This TIme)
TTITLE4=Going Out Of My Head
TTITLE5=You Got Yours And I'll Get Mine
TTITLE6=Somebody Loves You
TTITLE7=Funny Feeling
TTITLE8=Loving Him
TTITLE9=I'm Sorry
TTITLE10=When You Get Right Down To It
TTITLE11=Delfonic's Theme (How Could You)
EXTD=The Platinum and Gold Collection By Arista
EXTT0=
EXTT1=
EXTT2=
EXTT3=
EXTT4=
EXTT5=
EXTT6=
EXTT7=
EXTT8=
EXTT9=
EXTT10=
EXTT11=
PLAYORDER=
